<?xml version="1.0" standalone="no"?>
<!DOCTYPE svg PUBLIC "-//W3C//DTD SVG 20010904//EN"
 "http://www.w3.org/TR/2001/REC-SVG-20010904/DTD/svg10.dtd">
<svg version="1.0" xmlns="http://www.w3.org/2000/svg"
 width="458.000000pt" height="179.000000pt" viewBox="0 0 458.000000 179.000000"
 preserveAspectRatio="xMidYMid meet">

<g transform="translate(0.000000,179.000000) scale(0.100000,-0.100000)"
fill="#f1f1f1" stroke="none">
<path d="M682 1723 c-28 -11 -103 -187 -333 -778 -49 -126 -122 -311 -160
-409 -110 -278 -152 -406 -138 -422 15 -19 54 -18 73 2 9 8 23 41 32 72 9 31
27 89 41 127 151 423 198 548 322 866 22 58 48 114 56 125 14 19 14 19 14 -1
0 -11 -8 -58 -19 -105 -42 -180 -87 -425 -106 -570 -19 -156 -19 -338 2 -389
25 -64 84 -75 159 -30 51 30 70 74 125 287 6 23 17 42 24 42 10 0 15 -31 19
-127 6 -158 25 -226 70 -253 31 -19 46 -19 114 1 37 12 93 65 93 89 0 34 -21
40 -59 15 -49 -32 -84 -40 -99 -22 -33 39 -42 358 -17 554 20 151 103 500 161
669 24 72 44 133 44 137 0 13 -33 37 -50 37 -10 0 -26 -7 -34 -16 -27 -26
-124 -356 -171 -579 -9 -44 -30 -132 -47 -195 -17 -63 -36 -144 -43 -180 -35
-171 -134 -400 -174 -400 -10 0 -24 7 -31 15 -36 44 -18 329 39 630 12 60 85
373 135 574 43 172 45 204 14 225 -23 16 -34 18 -56 9z"/>
<path d="M3995 1696 c-151 -35 -290 -99 -409 -188 -99 -74 -225 -199 -232
-229 -7 -33 17 -59 56 -59 25 0 32 7 49 45 29 66 149 182 262 253 195 123 410
173 548 127 61 -20 129 -84 162 -152 51 -106 31 -283 -52 -446 -53 -105 -146
-251 -217 -345 -98 -127 -121 -162 -115 -177 9 -25 59 10 163 116 296 298 407
620 297 858 -29 61 -119 148 -186 179 -47 22 -72 27 -161 29 -62 1 -129 -3
-165 -11z"/>
<path d="M3640 1424 c0 -9 13 -38 30 -65 39 -64 72 -191 114 -439 36 -214 60
-291 96 -310 36 -19 45 0 32 62 -7 29 -23 132 -37 228 -45 311 -94 487 -146
524 -32 22 -89 22 -89 0z"/>
<path d="M1331 1371 c-29 -19 -32 -195 -8 -461 2 -21 -8 -29 -68 -60 -58 -29
-70 -39 -70 -60 0 -34 43 -49 88 -31 64 25 67 25 67 -3 0 -24 -3 -26 -40 -26
-104 0 -192 -92 -221 -228 -18 -90 15 -167 85 -197 70 -30 147 26 187 137 24
65 44 74 54 26 23 -116 32 -147 60 -187 36 -55 74 -76 113 -63 18 6 28 17 30
34 3 21 -2 26 -25 31 -51 10 -84 93 -123 315 -10 59 -22 133 -25 164 -7 54 -6
58 21 83 16 15 49 41 74 59 27 19 46 41 48 55 6 42 -12 44 -76 12 -34 -17 -63
-27 -65 -23 -3 4 -10 93 -17 197 -12 196 -22 235 -58 235 -9 0 -23 -4 -31 -9z
m-46 -712 c18 -27 8 -126 -18 -182 -23 -50 -29 -57 -55 -57 -43 0 -56 21 -49
84 6 57 26 107 60 144 22 23 51 29 62 11z"/>
<path d="M1657 1243 c-14 -13 -6 -140 14 -233 27 -127 34 -352 17 -542 -15
-161 -11 -188 26 -188 32 0 37 16 43 140 2 58 6 116 9 129 l5 24 32 -31 c65
-63 133 -49 190 38 17 27 36 50 41 50 4 0 22 -12 40 -27 54 -46 145 -83 203
-83 47 0 58 4 93 37 l41 36 85 -44 c132 -67 192 -60 318 40 60 48 98 54 183
31 39 -12 102 -22 140 -24 37 -2 84 -7 103 -10 44 -8 69 6 54 31 -22 36 -62
55 -133 64 -40 5 -95 15 -123 24 -62 18 -157 20 -195 3 -15 -7 -63 -36 -106
-65 -43 -29 -85 -53 -93 -53 -8 0 -53 20 -100 45 -60 32 -97 45 -125 45 -41 0
-99 -23 -99 -40 0 -5 -12 -17 -26 -26 -24 -16 -28 -16 -69 4 -24 12 -69 44
-100 72 -50 46 -60 51 -88 45 -41 -9 -61 -28 -104 -93 -18 -29 -39 -52 -46
-50 -21 7 -45 70 -71 188 -34 153 -66 342 -66 392 0 57 -14 78 -54 78 -18 0
-36 -3 -39 -7z"/>
</g>
</svg>
